<mxfile host="app.diagrams.net" agent="Mozilla/5.0 (Windows NT 10.0; Win64; x64) AppleWebKit/537.36 (KHTML, like Gecko) Chrome/136.0.0.0 Safari/537.36" version="27.0.4">
  <diagram name="Página-1" id="zIlETcJBHaH9q-2clFhD">
    <mxGraphModel grid="1" page="1" gridSize="10" guides="1" tooltips="1" connect="1" arrows="1" fold="1" pageScale="1" pageWidth="827" pageHeight="1169" math="0" shadow="0">
      <root>
        <mxCell id="0" />
        <mxCell id="1" parent="0" />
        <mxCell id="t1y3tKniLhQ201yWwBmI-1" value="Usuario" style="swimlane;fontStyle=0;childLayout=stackLayout;horizontal=1;startSize=26;fillColor=none;horizontalStack=0;resizeParent=1;resizeParentMax=0;resizeLast=0;collapsible=1;marginBottom=0;whiteSpace=wrap;html=1;" vertex="1" parent="1">
          <mxGeometry x="-800" y="-918.18" width="200" height="208" as="geometry" />
        </mxCell>
        <mxCell id="t1y3tKniLhQ201yWwBmI-2" value="PK&amp;nbsp; &amp;nbsp;id_usuario&amp;nbsp; &amp;nbsp; &amp;nbsp;INT" style="text;strokeColor=none;fillColor=none;align=left;verticalAlign=top;spacingLeft=4;spacingRight=4;overflow=hidden;rotatable=0;points=[[0,0.5],[1,0.5]];portConstraint=eastwest;whiteSpace=wrap;html=1;" vertex="1" parent="t1y3tKniLhQ201yWwBmI-1">
          <mxGeometry y="26" width="200" height="26" as="geometry" />
        </mxCell>
        <mxCell id="t1y3tKniLhQ201yWwBmI-3" value="&amp;nbsp; &amp;nbsp; &amp;nbsp; &amp;nbsp; tipo_usuario&amp;nbsp; VARCHAR(20)" style="text;strokeColor=none;fillColor=none;align=left;verticalAlign=top;spacingLeft=4;spacingRight=4;overflow=hidden;rotatable=0;points=[[0,0.5],[1,0.5]];portConstraint=eastwest;whiteSpace=wrap;html=1;" vertex="1" parent="t1y3tKniLhQ201yWwBmI-1">
          <mxGeometry y="52" width="200" height="26" as="geometry" />
        </mxCell>
        <mxCell id="t1y3tKniLhQ201yWwBmI-4" value="&amp;nbsp; &amp;nbsp; &amp;nbsp; &amp;nbsp; nome&amp;nbsp; &amp;nbsp; &amp;nbsp; &amp;nbsp; &amp;nbsp; &amp;nbsp; &amp;nbsp;VARCHAR(100)" style="text;strokeColor=none;fillColor=none;align=left;verticalAlign=top;spacingLeft=4;spacingRight=4;overflow=hidden;rotatable=0;points=[[0,0.5],[1,0.5]];portConstraint=eastwest;whiteSpace=wrap;html=1;" vertex="1" parent="t1y3tKniLhQ201yWwBmI-1">
          <mxGeometry y="78" width="200" height="26" as="geometry" />
        </mxCell>
        <mxCell id="t1y3tKniLhQ201yWwBmI-5" value="&amp;nbsp; &amp;nbsp; &amp;nbsp; &amp;nbsp; email&amp;nbsp; &amp;nbsp; &amp;nbsp; &amp;nbsp; &amp;nbsp; &amp;nbsp; &amp;nbsp;VARCHAR(100)" style="text;strokeColor=none;fillColor=none;align=left;verticalAlign=top;spacingLeft=4;spacingRight=4;overflow=hidden;rotatable=0;points=[[0,0.5],[1,0.5]];portConstraint=eastwest;whiteSpace=wrap;html=1;" vertex="1" parent="t1y3tKniLhQ201yWwBmI-1">
          <mxGeometry y="104" width="200" height="26" as="geometry" />
        </mxCell>
        <mxCell id="t1y3tKniLhQ201yWwBmI-6" value="&amp;nbsp; &amp;nbsp; &amp;nbsp; &amp;nbsp; senha&amp;nbsp; &amp;nbsp; &amp;nbsp; &amp;nbsp; &amp;nbsp; &amp;nbsp; VARCHAR(100)" style="text;strokeColor=none;fillColor=none;align=left;verticalAlign=top;spacingLeft=4;spacingRight=4;overflow=hidden;rotatable=0;points=[[0,0.5],[1,0.5]];portConstraint=eastwest;whiteSpace=wrap;html=1;" vertex="1" parent="t1y3tKniLhQ201yWwBmI-1">
          <mxGeometry y="130" width="200" height="26" as="geometry" />
        </mxCell>
        <mxCell id="t1y3tKniLhQ201yWwBmI-7" value="&amp;nbsp; &amp;nbsp; &amp;nbsp; &amp;nbsp; telefone&amp;nbsp; &amp;nbsp; &amp;nbsp; &amp;nbsp; &amp;nbsp;VARCHAR(20)" style="text;strokeColor=none;fillColor=none;align=left;verticalAlign=top;spacingLeft=4;spacingRight=4;overflow=hidden;rotatable=0;points=[[0,0.5],[1,0.5]];portConstraint=eastwest;whiteSpace=wrap;html=1;" vertex="1" parent="t1y3tKniLhQ201yWwBmI-1">
          <mxGeometry y="156" width="200" height="26" as="geometry" />
        </mxCell>
        <mxCell id="t1y3tKniLhQ201yWwBmI-30" value="&amp;nbsp; &amp;nbsp; &amp;nbsp; &amp;nbsp; CPF&amp;nbsp; &amp;nbsp; &amp;nbsp; &amp;nbsp; VARCHAR(11)" style="text;strokeColor=none;fillColor=none;align=left;verticalAlign=top;spacingLeft=4;spacingRight=4;overflow=hidden;rotatable=0;points=[[0,0.5],[1,0.5]];portConstraint=eastwest;whiteSpace=wrap;html=1;" vertex="1" parent="t1y3tKniLhQ201yWwBmI-1">
          <mxGeometry y="182" width="200" height="26" as="geometry" />
        </mxCell>
        <mxCell id="t1y3tKniLhQ201yWwBmI-8" value="Pet" style="swimlane;fontStyle=0;childLayout=stackLayout;horizontal=1;startSize=26;fillColor=none;horizontalStack=0;resizeParent=1;resizeParentMax=0;resizeLast=0;collapsible=1;marginBottom=0;whiteSpace=wrap;html=1;" vertex="1" parent="1">
          <mxGeometry x="-561.01" y="-603" width="190" height="264" as="geometry" />
        </mxCell>
        <mxCell id="t1y3tKniLhQ201yWwBmI-9" value="PK id_pet INT" style="text;strokeColor=none;fillColor=none;align=left;verticalAlign=top;spacingLeft=4;spacingRight=4;overflow=hidden;rotatable=0;points=[[0,0.5],[1,0.5]];portConstraint=eastwest;whiteSpace=wrap;html=1;" vertex="1" parent="t1y3tKniLhQ201yWwBmI-8">
          <mxGeometry y="26" width="190" height="26" as="geometry" />
        </mxCell>
        <mxCell id="t1y3tKniLhQ201yWwBmI-10" value="&lt;div&gt;&lt;span style=&quot;background-color: transparent; color: light-dark(rgb(0, 0, 0), rgb(255, 255, 255));&quot;&gt;FK id_usuario INT&lt;/span&gt;&lt;/div&gt;" style="text;strokeColor=none;fillColor=none;align=left;verticalAlign=top;spacingLeft=4;spacingRight=4;overflow=hidden;rotatable=0;points=[[0,0.5],[1,0.5]];portConstraint=eastwest;whiteSpace=wrap;html=1;" vertex="1" parent="t1y3tKniLhQ201yWwBmI-8">
          <mxGeometry y="52" width="190" height="30" as="geometry" />
        </mxCell>
        <mxCell id="t1y3tKniLhQ201yWwBmI-11" value="&lt;div&gt;nome VARCHAR (100)&lt;/div&gt;" style="text;strokeColor=none;fillColor=none;align=left;verticalAlign=top;spacingLeft=4;spacingRight=4;overflow=hidden;rotatable=0;points=[[0,0.5],[1,0.5]];portConstraint=eastwest;whiteSpace=wrap;html=1;" vertex="1" parent="t1y3tKniLhQ201yWwBmI-8">
          <mxGeometry y="82" width="190" height="26" as="geometry" />
        </mxCell>
        <mxCell id="t1y3tKniLhQ201yWwBmI-12" value="idade INT" style="text;strokeColor=none;fillColor=none;align=left;verticalAlign=top;spacingLeft=4;spacingRight=4;overflow=hidden;rotatable=0;points=[[0,0.5],[1,0.5]];portConstraint=eastwest;whiteSpace=wrap;html=1;" vertex="1" parent="t1y3tKniLhQ201yWwBmI-8">
          <mxGeometry y="108" width="190" height="26" as="geometry" />
        </mxCell>
        <mxCell id="t1y3tKniLhQ201yWwBmI-13" value="&lt;div&gt;raca VARCHAR (50)&lt;/div&gt;" style="text;strokeColor=none;fillColor=none;align=left;verticalAlign=top;spacingLeft=4;spacingRight=4;overflow=hidden;rotatable=0;points=[[0,0.5],[1,0.5]];portConstraint=eastwest;whiteSpace=wrap;html=1;" vertex="1" parent="t1y3tKniLhQ201yWwBmI-8">
          <mxGeometry y="134" width="190" height="26" as="geometry" />
        </mxCell>
        <mxCell id="t1y3tKniLhQ201yWwBmI-14" value="&lt;div&gt;porte VARCHAR (20)&lt;/div&gt;" style="text;strokeColor=none;fillColor=none;align=left;verticalAlign=top;spacingLeft=4;spacingRight=4;overflow=hidden;rotatable=0;points=[[0,0.5],[1,0.5]];portConstraint=eastwest;whiteSpace=wrap;html=1;" vertex="1" parent="t1y3tKniLhQ201yWwBmI-8">
          <mxGeometry y="160" width="190" height="26" as="geometry" />
        </mxCell>
        <mxCell id="t1y3tKniLhQ201yWwBmI-15" value="&lt;div&gt;descricao TEXT&lt;/div&gt;" style="text;strokeColor=none;fillColor=none;align=left;verticalAlign=top;spacingLeft=4;spacingRight=4;overflow=hidden;rotatable=0;points=[[0,0.5],[1,0.5]];portConstraint=eastwest;whiteSpace=wrap;html=1;" vertex="1" parent="t1y3tKniLhQ201yWwBmI-8">
          <mxGeometry y="186" width="190" height="26" as="geometry" />
        </mxCell>
        <mxCell id="t1y3tKniLhQ201yWwBmI-16" value="&lt;div&gt;status VARCHAR (30)&lt;/div&gt;" style="text;strokeColor=none;fillColor=none;align=left;verticalAlign=top;spacingLeft=4;spacingRight=4;overflow=hidden;rotatable=0;points=[[0,0.5],[1,0.5]];portConstraint=eastwest;whiteSpace=wrap;html=1;" vertex="1" parent="t1y3tKniLhQ201yWwBmI-8">
          <mxGeometry y="212" width="190" height="26" as="geometry" />
        </mxCell>
        <mxCell id="t1y3tKniLhQ201yWwBmI-17" value="data_resgate DATE" style="text;strokeColor=none;fillColor=none;align=left;verticalAlign=top;spacingLeft=4;spacingRight=4;overflow=hidden;rotatable=0;points=[[0,0.5],[1,0.5]];portConstraint=eastwest;whiteSpace=wrap;html=1;" vertex="1" parent="t1y3tKniLhQ201yWwBmI-8">
          <mxGeometry y="238" width="190" height="26" as="geometry" />
        </mxCell>
        <mxCell id="t1y3tKniLhQ201yWwBmI-18" value="1. Modelo Conceitual → DER (Entidades, relacionamentos)&#xa;2. Modelo Lógico → Tipos, tamanhos, restrições&#xa;3. Modelo Físico → SQL para PostgreSQL&#xa;4. (Opcional) Dicionário de dados" style="text;whiteSpace=wrap;" vertex="1" parent="1">
          <mxGeometry x="-585" y="-90" width="350" height="80" as="geometry" />
        </mxCell>
        <mxCell id="t1y3tKniLhQ201yWwBmI-19" value="Adocao" style="swimlane;fontStyle=0;childLayout=stackLayout;horizontal=1;startSize=26;fillColor=none;horizontalStack=0;resizeParent=1;resizeParentMax=0;resizeLast=0;collapsible=1;marginBottom=0;whiteSpace=wrap;html=1;" vertex="1" parent="1">
          <mxGeometry x="-290" y="-809" width="230" height="156" as="geometry" />
        </mxCell>
        <mxCell id="t1y3tKniLhQ201yWwBmI-20" value="PK id_adocao&amp;nbsp; INT" style="text;strokeColor=none;fillColor=none;align=left;verticalAlign=top;spacingLeft=4;spacingRight=4;overflow=hidden;rotatable=0;points=[[0,0.5],[1,0.5]];portConstraint=eastwest;whiteSpace=wrap;html=1;" vertex="1" parent="t1y3tKniLhQ201yWwBmI-19">
          <mxGeometry y="26" width="230" height="26" as="geometry" />
        </mxCell>
        <mxCell id="t1y3tKniLhQ201yWwBmI-21" value="FK id_usuario INT" style="text;strokeColor=none;fillColor=none;align=left;verticalAlign=top;spacingLeft=4;spacingRight=4;overflow=hidden;rotatable=0;points=[[0,0.5],[1,0.5]];portConstraint=eastwest;whiteSpace=wrap;html=1;" vertex="1" parent="t1y3tKniLhQ201yWwBmI-19">
          <mxGeometry y="52" width="230" height="26" as="geometry" />
        </mxCell>
        <mxCell id="t1y3tKniLhQ201yWwBmI-22" value="FK id_pet&amp;nbsp; INT" style="text;strokeColor=none;fillColor=none;align=left;verticalAlign=top;spacingLeft=4;spacingRight=4;overflow=hidden;rotatable=0;points=[[0,0.5],[1,0.5]];portConstraint=eastwest;whiteSpace=wrap;html=1;" vertex="1" parent="t1y3tKniLhQ201yWwBmI-19">
          <mxGeometry y="78" width="230" height="26" as="geometry" />
        </mxCell>
        <mxCell id="t1y3tKniLhQ201yWwBmI-23" value="&lt;div&gt;data_adocao DATE&lt;/div&gt;" style="text;strokeColor=none;fillColor=none;align=left;verticalAlign=top;spacingLeft=4;spacingRight=4;overflow=hidden;rotatable=0;points=[[0,0.5],[1,0.5]];portConstraint=eastwest;whiteSpace=wrap;html=1;" vertex="1" parent="t1y3tKniLhQ201yWwBmI-19">
          <mxGeometry y="104" width="230" height="26" as="geometry" />
        </mxCell>
        <mxCell id="t1y3tKniLhQ201yWwBmI-24" value="formulario TEXT" style="text;strokeColor=none;fillColor=none;align=left;verticalAlign=top;spacingLeft=4;spacingRight=4;overflow=hidden;rotatable=0;points=[[0,0.5],[1,0.5]];portConstraint=eastwest;whiteSpace=wrap;html=1;" vertex="1" parent="t1y3tKniLhQ201yWwBmI-19">
          <mxGeometry y="130" width="230" height="26" as="geometry" />
        </mxCell>
        <mxCell id="t1y3tKniLhQ201yWwBmI-25" value="MODELO LÓGICO&#xa;Diagrama de Entidade e Relacionamento (DER)&#xa;(ou DER logico)" style="text;whiteSpace=wrap;fontStyle=1;labelBackgroundColor=light-dark(default, #fd0d0d);fillColor=#e51400;fontColor=#ffffff;strokeColor=#B20000;align=center;fontSize=16;" vertex="1" parent="1">
          <mxGeometry x="-600" y="-1150" width="390" height="70" as="geometry" />
        </mxCell>
        <mxCell id="t1y3tKniLhQ201yWwBmI-26" style="edgeStyle=orthogonalEdgeStyle;rounded=0;orthogonalLoop=1;jettySize=auto;html=1;entryX=-0.001;entryY=0.71;entryDx=0;entryDy=0;entryPerimeter=0;" edge="1" parent="1" source="t1y3tKniLhQ201yWwBmI-2" target="t1y3tKniLhQ201yWwBmI-21">
          <mxGeometry relative="1" as="geometry">
            <mxPoint x="-540" y="-853" as="targetPoint" />
          </mxGeometry>
        </mxCell>
        <mxCell id="t1y3tKniLhQ201yWwBmI-27" style="edgeStyle=orthogonalEdgeStyle;rounded=0;orthogonalLoop=1;jettySize=auto;html=1;entryX=-0.004;entryY=0.555;entryDx=0;entryDy=0;entryPerimeter=0;" edge="1" parent="1" source="t1y3tKniLhQ201yWwBmI-9" target="t1y3tKniLhQ201yWwBmI-22">
          <mxGeometry relative="1" as="geometry" />
        </mxCell>
        <mxCell id="t1y3tKniLhQ201yWwBmI-28" style="edgeStyle=orthogonalEdgeStyle;rounded=0;orthogonalLoop=1;jettySize=auto;html=1;entryX=-0.02;entryY=0.585;entryDx=0;entryDy=0;entryPerimeter=0;exitX=0.998;exitY=0.638;exitDx=0;exitDy=0;exitPerimeter=0;" edge="1" parent="1" source="t1y3tKniLhQ201yWwBmI-2" target="t1y3tKniLhQ201yWwBmI-10">
          <mxGeometry relative="1" as="geometry" />
        </mxCell>
        <mxCell id="t1y3tKniLhQ201yWwBmI-29" value="&lt;br&gt;&lt;table data-start=&quot;723&quot; data-end=&quot;1460&quot; class=&quot;w-fit min-w-(--thread-content-width)&quot; style=&quot;text-wrap-mode: nowrap;&quot;&gt;&lt;tbody data-start=&quot;856&quot; data-end=&quot;1460&quot;&gt;&lt;tr data-start=&quot;1328&quot; data-end=&quot;1393&quot;&gt;&lt;td data-start=&quot;1360&quot; data-end=&quot;1393&quot; data-col-size=&quot;sm&quot;&gt;&lt;span style=&quot;text-wrap-mode: wrap;&quot;&gt;status:&amp;nbsp;&lt;/span&gt;disponível ou adotado&lt;br&gt;descricao: informacao se ele esta vacinado etc&lt;br&gt;formulario: saber se o usuario pode adotar ou nao&lt;/td&gt;&lt;/tr&gt;&lt;tr data-start=&quot;1394&quot; data-end=&quot;1460&quot;&gt;&lt;td data-start=&quot;1394&quot; data-end=&quot;1410&quot; data-col-size=&quot;sm&quot;&gt;&lt;/td&gt;&lt;/tr&gt;&lt;/tbody&gt;&lt;/table&gt;" style="text;html=1;align=left;verticalAlign=middle;whiteSpace=wrap;rounded=0;" vertex="1" parent="1">
          <mxGeometry x="-585" y="-1048.18" width="240" height="38.18" as="geometry" />
        </mxCell>
      </root>
    </mxGraphModel>
  </diagram>
</mxfile>
